<svg width="36" height="49" viewBox="0 0 36 49" fill="none" xmlns="http://www.w3.org/2000/svg">
<g clip-path="url(#clip0_44_29)">
<path d="M35.7314 0H-0.000244141V35.1909H35.7314V0Z" fill="white"/>
<path d="M-0.000244141 0V36.3491H35.9961V0H-0.000244141ZM6.79759 27.8944L11.5971 23.0434L6.79759 18.1968V18.1745L11.5971 13.328L6.79759 8.45473L10.2737 4.94455L18.5537 13.3057L13.7278 18.1745L18.5537 23.0434L10.2737 31.4045L6.79759 27.8944ZM29.3747 23.0434L21.0902 31.4045L17.6141 27.8944L22.4136 23.0434L17.6141 18.1968V18.1745L22.4136 13.3057L17.6141 8.45473L21.0902 4.94455L29.3659 13.3057L24.5531 18.1745L29.3747 23.0434Z" fill="#DD0032"/>
<path d="M9.33434 45.2359L7.49482 39.5742H5.69942L3.85549 45.2359L2.36006 39.5742H0L2.58944 48.3363H4.89215L6.59491 43.2581L8.29768 48.3363H10.6004L13.1898 39.5742H10.8298L9.33434 45.2359Z" fill="#DD0032"/>
<path d="M22.5201 45.2359L20.6806 39.5741H18.8852L17.0457 45.2359L15.5502 39.5741H13.1902L15.7796 48.3362H18.0823L19.7851 43.258L21.4879 48.3362H23.7862L26.3756 39.5741H24.0155L22.5201 45.2359Z" fill="#DD0032"/>
<path d="M31.3729 45.2005H33.2213C33.1931 45.4299 33.1196 45.6508 33.0051 45.8508C32.9027 46.0281 32.7626 46.1805 32.5948 46.2963C32.4257 46.4103 32.2374 46.4918 32.039 46.5368C31.8283 46.5889 31.6119 46.6148 31.395 46.6126C31.0544 46.6206 30.7161 46.5551 30.4024 46.421C30.1269 46.3003 29.8835 46.1159 29.6922 45.882C29.4912 45.6406 29.3411 45.3599 29.2511 45.0579C29.1515 44.7212 29.1025 44.3714 29.1055 44.02C29.1015 43.6421 29.1581 43.266 29.2731 42.9064C29.3666 42.5962 29.5161 42.3062 29.7143 42.0511C29.9166 41.8189 30.1685 41.6362 30.451 41.5165C30.7405 41.3848 31.0553 41.3194 31.3729 41.325C31.7572 41.3181 32.1349 41.4267 32.4581 41.6368C32.8127 41.8959 33.083 42.2556 33.2345 42.6703L35.374 41.7794C35.0333 41.012 34.4664 40.3695 33.7506 39.9396C33.0235 39.5341 32.2033 39.3298 31.3729 39.3472C30.7238 39.3394 30.079 39.4543 29.4716 39.6857C28.9272 39.894 28.4315 40.214 28.0159 40.6256C27.6064 41.0404 27.2891 41.5385 27.0851 42.0867C26.8589 42.6852 26.7466 43.3215 26.7543 43.9621C26.7477 44.6071 26.8615 45.2481 27.0895 45.8508C27.2986 46.3965 27.6153 46.8936 28.0203 47.3119C28.4341 47.7217 28.9286 48.0389 29.4716 48.2429C30.0609 48.4732 30.6882 48.5881 31.32 48.5815C31.7938 48.5837 32.2657 48.5204 32.7228 48.3944C33.1555 48.2763 33.5687 48.0946 33.9491 47.8554C34.3219 47.6184 34.6505 47.3168 34.9196 46.9645C35.2028 46.5996 35.4248 46.1903 35.5769 45.7528C35.6949 45.4098 35.7719 45.0539 35.8063 44.6926C35.8472 44.2722 35.8663 43.85 35.8636 43.4275H31.3906L31.3729 45.2005Z" fill="#DD0032"/>
</g>
<defs>
<clipPath id="clip0_44_29">
<rect width="36" height="49" fill="white"/>
</clipPath>
</defs>
</svg>
